<svg xmlns="http://www.w3.org/2000/svg" version="1.0" width="450.000000" height="388.000000" preserveAspectRatio="xMidYMid meet" style=""><rect id="backgroundrect" width="100%" height="100%" x="0" y="0" fill="none" stroke="none"/>


<g class="currentLayer" style=""><title>Layer 1</title><g transform="translate(0,388) scale(0.10000000149011612,-0.10000000149011612) " fill="#2c5b5b" stroke="none" id="svg_1" class="selected" fill-opacity="1">
<path d="M325 3741 c-24 -5 -45 -17 -54 -32 -9 -13 -39 -49 -67 -79 -28 -30 -64 -79 -80 -109 -16 -29 -39 -60 -51 -68 -47 -31 -52 -151 -9 -199 12 -13 65 -39 121 -60 122 -44 179 -73 268 -131 77 -51 109 -96 80 -112 -10 -5 -45 -12 -78 -16 -112 -14 -152 -52 -141 -135 l7 -50 -57 -52 c-31 -29 -63 -67 -70 -85 -30 -70 -7 -160 55 -218 28 -26 40 -30 104 -33 70 -4 75 -2 171 47 146 76 161 73 338 -58 87 -65 116 -94 158 -156 28 -42 56 -90 62 -107 16 -46 -7 -312 -31 -358 -26 -49 -88 -78 -200 -95 -144 -22 -211 -79 -231 -198 -15 -93 14 -215 55 -231 44 -17 70 -6 125 53 41 43 68 62 106 75 38 12 66 32 113 81 78 80 105 84 197 29 32 -20 85 -49 116 -65 66 -34 74 -50 63 -137 -19 -154 3 -258 84 -380 59 -91 71 -120 71 -173 0 -46 -52 -178 -84 -216 -20 -23 -33 -26 -127 -35 -57 -5 -117 -14 -134 -20 -80 -30 -127 -119 -95 -179 12 -22 120 -79 150 -79 11 0 57 -7 102 -17 70 -14 91 -14 143 -4 140 29 219 92 280 223 19 42 35 82 35 87 0 6 27 38 60 70 56 55 60 62 60 105 0 28 -12 75 -32 123 -31 74 -32 85 -34 217 -1 101 -7 156 -20 198 -16 54 -16 60 -1 75 15 15 23 14 104 -10 140 -43 256 -30 331 37 98 87 163 116 190 84 5 -7 13 -38 17 -68 11 -95 25 -121 105 -205 110 -115 129 -157 156 -340 14 -98 14 -123 4 -162 -18 -64 -65 -107 -132 -123 -70 -17 -96 -31 -139 -77 -67 -70 -78 -125 -34 -168 21 -22 33 -25 104 -25 76 0 81 -1 121 -35 54 -45 84 -45 170 2 l68 37 39 -27 c50 -35 92 -35 134 0 39 33 79 115 79 163 0 19 -9 64 -20 98 -26 83 -25 109 5 157 42 69 35 112 -41 261 l-66 129 7 130 c14 227 8 267 -46 358 -16 26 -29 56 -29 67 0 21 33 48 130 105 92 54 285 252 397 405 50 69 131 180 180 247 199 274 333 402 534 508 l114 60 0 45 c0 42 -2 46 -39 64 -51 25 -199 26 -313 2 -199 -42 -367 -116 -528 -233 -170 -123 -265 -182 -347 -214 -75 -30 -93 -33 -188 -33 -89 0 -117 5 -184 28 -44 15 -107 43 -141 62 -85 47 -162 72 -267 86 -77 10 -108 9 -224 -7 -132 -18 -135 -18 -192 1 -35 11 -98 21 -162 24 l-105 5 -7 110 c-4 61 -16 174 -27 252 -24 181 -41 217 -163 345 -100 105 -122 118 -268 162 -189 57 -446 150 -483 174 -37 25 -47 26 -186 28 -80 2 -164 -1 -186 -5z m235 -191 c9 -5 73 -24 143 -44 186 -53 517 -165 555 -188 37 -23 124 -126 147 -174 22 -46 35 -147 44 -350 10 -199 16 -220 75 -272 44 -38 85 -46 186 -38 65 6 90 4 150 -15 59 -18 85 -20 148 -15 309 26 363 21 512 -54 52 -26 133 -60 180 -75 74 -24 101 -28 215 -29 111 0 140 3 200 23 115 38 233 101 335 176 172 129 332 226 346 212 3 -2 -43 -60 -101 -128 -58 -68 -165 -206 -237 -306 -152 -211 -220 -299 -286 -367 -46 -48 -184 -146 -252 -181 -43 -21 -107 -81 -126 -117 -8 -15 -14 -51 -14 -81 0 -44 6 -64 36 -113 68 -110 67 -108 60 -213 -5 -84 -23 -181 -25 -142 -1 7 -34 48 -75 90 -88 91 -92 98 -101 181 -12 111 -45 167 -120 201 -93 43 -211 13 -327 -82 -93 -75 -117 -80 -225 -45 -154 50 -252 31 -317 -62 -41 -58 -48 -147 -17 -217 21 -48 28 -138 15 -204 l-7 -31 -48 76 c-56 89 -64 126 -54 243 11 124 7 169 -20 228 -25 55 -23 53 -191 163 -50 32 -96 65 -101 72 -8 9 -8 61 -1 173 16 249 15 256 -36 360 -55 112 -133 199 -268 302 -135 102 -207 134 -295 134 -71 0 -121 -13 -194 -52 -86 -46 -104 -48 -38 -5 55 37 96 83 120 132 15 33 28 45 63 58 57 22 122 92 132 141 17 90 -16 158 -119 247 -56 48 -116 86 -209 133 -72 36 -137 65 -144 65 -18 0 -17 9 1 51 23 54 51 91 97 127 41 31 45 32 108 26 36 -3 72 -10 80 -14z m2399 -2850 c0 -29 -2 -31 -9 -15 -5 11 -9 34 -9 50 -1 23 2 26 9 15 5 -8 9 -31 9 -50z m-19 -220 c0 -20 -5 -30 -14 -30 -12 0 -13 6 -5 30 6 17 13 30 15 30 2 0 4 -13 4 -30z" id="svg_2" fill="#2c5b5b" fill-opacity="1"/>
</g></g></svg>